<?xml version="1.0" encoding="UTF-8" standalone="no"?>
<!DOCTYPE svg PUBLIC "-//W3C//DTD SVG 1.1//EN"
 "http://www.w3.org/Graphics/SVG/1.1/DTD/svg11.dtd">
<!-- Generated by graphviz version 2.47.0 (20210316.0004)
 -->
<!-- Title: dependencies Pages: 1 -->
<svg width="604pt" height="366pt"
 viewBox="0.00 0.00 604.00 366.00" xmlns="http://www.w3.org/2000/svg" xmlns:xlink="http://www.w3.org/1999/xlink">
<g id="graph0" class="graph" transform="scale(1 1) rotate(0) translate(4 362)">
<title>dependencies</title>
<polygon fill="white" stroke="transparent" points="-4,4 -4,-362 600,-362 600,4 -4,4"/>
<text text-anchor="start" x="277.01" y="-42.4" font-family="Times-12" font-weight="bold" font-size="14.00">Legend</text>
<polygon fill="#ffffb3" stroke="transparent" points="64,-10 64,-30 84,-30 84,-10 64,-10"/>
<text text-anchor="start" x="87.63" y="-15.4" font-family="Times-12" font-size="14.00"> &#160;Declarations</text>
<polygon fill="#8dd3c7" stroke="transparent" points="177,-10 177,-30 197,-30 197,-10 177,-10"/>
<text text-anchor="start" x="200.73" y="-15.4" font-family="Times-12" font-size="14.00"> &#160;Module</text>
<polygon fill="#80b1d3" stroke="transparent" points="263,-10 263,-30 283,-30 283,-10 263,-10"/>
<text text-anchor="start" x="286.78" y="-15.4" font-family="Times-12" font-size="14.00"> &#160;Bootstrap</text>
<polygon fill="#fdb462" stroke="transparent" points="360,-10 360,-30 380,-30 380,-10 360,-10"/>
<text text-anchor="start" x="383.67" y="-15.4" font-family="Times-12" font-size="14.00"> &#160;Providers</text>
<polygon fill="#fb8072" stroke="transparent" points="456,-10 456,-30 476,-30 476,-10 456,-10"/>
<text text-anchor="start" x="479.73" y="-15.4" font-family="Times-12" font-size="14.00"> &#160;Exports</text>
<g id="clust7" class="cluster">
<title>cluster_AuthModule</title>
<polygon fill="none" stroke="black" stroke-dasharray="1,5" points="438,-138 438,-350 588,-350 588,-138 438,-138"/>
</g>
<g id="clust12" class="cluster">
<title>cluster_AuthModule_providers</title>
<polygon fill="none" stroke="black" points="446,-146 446,-198 580,-198 580,-146 446,-146"/>
</g>
<g id="clust10" class="cluster">
<title>cluster_AuthModule_exports</title>
<polygon fill="none" stroke="black" points="453,-290 453,-342 559,-342 559,-290 453,-290"/>
</g>
<g id="clust19" class="cluster">
<title>cluster_UsersModule</title>
<polygon fill="none" stroke="black" stroke-dasharray="1,5" points="8,-70 8,-282 164,-282 164,-70 8,-70"/>
</g>
<g id="clust24" class="cluster">
<title>cluster_UsersModule_providers</title>
<polygon fill="none" stroke="black" points="16,-78 16,-130 156,-130 156,-78 16,-78"/>
</g>
<g id="clust22" class="cluster">
<title>cluster_UsersModule_exports</title>
<polygon fill="none" stroke="black" points="34,-222 34,-274 144,-274 144,-222 34,-222"/>
</g>
<g id="clust1" class="cluster">
<title>cluster_AppModule</title>
<polygon fill="none" stroke="black" stroke-dasharray="1,5" points="176,-214 176,-342 430,-342 430,-214 176,-214"/>
</g>
<g id="clust6" class="cluster">
<title>cluster_AppModule_providers</title>
<polygon fill="none" stroke="black" points="292,-222 292,-274 422,-274 422,-222 292,-222"/>
</g>
<g id="clust3" class="cluster">
<title>cluster_AppModule_imports</title>
<polygon fill="none" stroke="black" points="184,-222 184,-274 284,-274 284,-222 184,-222"/>
</g>
<g id="clust13" class="cluster">
<title>cluster_PostModule</title>
<polygon fill="none" stroke="black" stroke-dasharray="1,5" points="172,-138 172,-206 324,-206 324,-138 172,-138"/>
</g>
<g id="clust18" class="cluster">
<title>cluster_PostModule_providers</title>
<polygon fill="none" stroke="black" points="180,-146 180,-198 316,-198 316,-146 180,-146"/>
</g>
<!-- AuthModule -->
<g id="node1" class="node">
<title>AuthModule</title>
<polygon fill="#8dd3c7" stroke="black" points="549.55,-266 546.55,-270 525.55,-270 522.55,-266 462.45,-266 462.45,-230 549.55,-230 549.55,-266"/>
<text text-anchor="middle" x="506" y="-243.8" font-family="Times,serif" font-size="14.00">AuthModule</text>
</g>
<!-- AppModule -->
<g id="node4" class="node">
<title>AppModule</title>
<polygon fill="#8dd3c7" stroke="black" points="336.66,-334 333.66,-338 312.66,-338 309.66,-334 253.34,-334 253.34,-298 336.66,-298 336.66,-334"/>
<text text-anchor="middle" x="295" y="-311.8" font-family="Times,serif" font-size="14.00">AppModule</text>
</g>
<!-- AuthModule&#45;&gt;AppModule -->
<g id="edge1" class="edge">
<title>AuthModule&#45;&gt;AppModule</title>
<path fill="none" stroke="black" d="M462.31,-248C459.33,-248 457.48,-248 457.48,-248 457.48,-248 457.48,-316 457.48,-316 457.48,-316 346.84,-316 346.84,-316"/>
<polygon fill="black" stroke="black" points="346.84,-312.5 336.84,-316 346.84,-319.5 346.84,-312.5"/>
</g>
<!-- AuthService  -->
<g id="node6" class="node">
<title>AuthService </title>
<polygon fill="#fb8072" stroke="black" points="550.98,-334 461.02,-334 461.02,-298 550.98,-298 550.98,-334"/>
<text text-anchor="middle" x="506" y="-311.8" font-family="Times,serif" font-size="14.00">AuthService </text>
</g>
<!-- AuthModule&#45;&gt;AuthService  -->
<g id="edge5" class="edge">
<title>AuthModule&#45;&gt;AuthService </title>
<path fill="none" stroke="black" stroke-dasharray="5,2" d="M506,-266.22C506,-266.22 506,-287.73 506,-287.73"/>
<polygon fill="black" stroke="black" points="502.5,-287.73 506,-297.73 509.5,-287.73 502.5,-287.73"/>
</g>
<!-- PostModule -->
<g id="node2" class="node">
<title>PostModule</title>
<polygon fill="#8dd3c7" stroke="black" points="275.67,-266 272.67,-270 251.67,-270 248.67,-266 192.33,-266 192.33,-230 275.67,-230 275.67,-266"/>
<text text-anchor="middle" x="234" y="-243.8" font-family="Times,serif" font-size="14.00">PostModule</text>
</g>
<!-- PostModule&#45;&gt;AppModule -->
<g id="edge2" class="edge">
<title>PostModule&#45;&gt;AppModule</title>
<path fill="none" stroke="black" d="M264.5,-266.22C264.5,-266.22 264.5,-287.73 264.5,-287.73"/>
<polygon fill="black" stroke="black" points="261,-287.73 264.5,-297.73 268,-287.73 261,-287.73"/>
</g>
<!-- UsersModule -->
<g id="node3" class="node">
<title>UsersModule</title>
<polygon fill="#8dd3c7" stroke="black" points="138.92,-190 135.92,-194 114.92,-194 111.92,-190 47.08,-190 47.08,-154 138.92,-154 138.92,-190"/>
<text text-anchor="middle" x="93" y="-167.8" font-family="Times,serif" font-size="14.00">UsersModule</text>
</g>
<!-- UsersModule&#45;&gt;PostModule -->
<g id="edge7" class="edge">
<title>UsersModule&#45;&gt;PostModule</title>
<path fill="none" stroke="black" d="M138.94,-166C142.58,-166 144.89,-166 144.89,-166 144.89,-166 144.89,-248 144.89,-248 144.89,-248 182.31,-248 182.31,-248"/>
<polygon fill="black" stroke="black" points="182.31,-251.5 192.31,-248 182.31,-244.5 182.31,-251.5"/>
</g>
<!-- UsersModule&#45;&gt;AppModule -->
<g id="edge3" class="edge">
<title>UsersModule&#45;&gt;AppModule</title>
<path fill="none" stroke="black" d="M138.89,-178C140.72,-178 141.8,-178 141.8,-178 141.8,-178 141.8,-316 141.8,-316 141.8,-316 243.14,-316 243.14,-316"/>
<polygon fill="black" stroke="black" points="243.14,-319.5 253.14,-316 243.14,-312.5 243.14,-319.5"/>
</g>
<!-- UsersService  -->
<g id="node9" class="node">
<title>UsersService </title>
<polygon fill="#fb8072" stroke="black" points="135.85,-266 42.15,-266 42.15,-230 135.85,-230 135.85,-266"/>
<text text-anchor="middle" x="89" y="-243.8" font-family="Times,serif" font-size="14.00">UsersService </text>
</g>
<!-- UsersModule&#45;&gt;UsersService  -->
<g id="edge9" class="edge">
<title>UsersModule&#45;&gt;UsersService </title>
<path fill="none" stroke="black" stroke-dasharray="5,2" d="M91.48,-190.01C91.48,-190.01 91.48,-219.85 91.48,-219.85"/>
<polygon fill="black" stroke="black" points="87.98,-219.85 91.48,-229.85 94.98,-219.85 87.98,-219.85"/>
</g>
<!-- AppService -->
<g id="node5" class="node">
<title>AppService</title>
<ellipse fill="#fdb462" stroke="black" cx="357" cy="-248" rx="56.74" ry="18"/>
<text text-anchor="middle" x="357" y="-243.8" font-family="Times,serif" font-size="14.00">AppService</text>
</g>
<!-- AppService&#45;&gt;AppModule -->
<g id="edge4" class="edge">
<title>AppService&#45;&gt;AppModule</title>
<path fill="none" stroke="black" d="M318.6,-261.43C318.6,-261.43 318.6,-287.96 318.6,-287.96"/>
<polygon fill="black" stroke="black" points="315.1,-287.96 318.6,-297.96 322.1,-287.96 315.1,-287.96"/>
</g>
<!-- AuthService -->
<g id="node7" class="node">
<title>AuthService</title>
<ellipse fill="#fdb462" stroke="black" cx="513" cy="-172" rx="59.11" ry="18"/>
<text text-anchor="middle" x="513" y="-167.8" font-family="Times,serif" font-size="14.00">AuthService</text>
</g>
<!-- AuthService&#45;&gt;AuthModule -->
<g id="edge6" class="edge">
<title>AuthService&#45;&gt;AuthModule</title>
<path fill="none" stroke="black" d="M506,-190.01C506,-190.01 506,-219.85 506,-219.85"/>
<polygon fill="black" stroke="black" points="502.5,-219.85 506,-229.85 509.5,-219.85 502.5,-219.85"/>
</g>
<!-- PostsService -->
<g id="node8" class="node">
<title>PostsService</title>
<ellipse fill="#fdb462" stroke="black" cx="248" cy="-172" rx="60.27" ry="18"/>
<text text-anchor="middle" x="248" y="-167.8" font-family="Times,serif" font-size="14.00">PostsService</text>
</g>
<!-- PostsService&#45;&gt;PostModule -->
<g id="edge8" class="edge">
<title>PostsService&#45;&gt;PostModule</title>
<path fill="none" stroke="black" d="M234,-189.63C234,-189.63 234,-219.94 234,-219.94"/>
<polygon fill="black" stroke="black" points="230.5,-219.94 234,-229.94 237.5,-219.94 230.5,-219.94"/>
</g>
<!-- UsersService -->
<g id="node10" class="node">
<title>UsersService</title>
<ellipse fill="#fdb462" stroke="black" cx="86" cy="-104" rx="61.95" ry="18"/>
<text text-anchor="middle" x="86" y="-99.8" font-family="Times,serif" font-size="14.00">UsersService</text>
</g>
<!-- UsersService&#45;&gt;UsersModule -->
<g id="edge10" class="edge">
<title>UsersService&#45;&gt;UsersModule</title>
<path fill="none" stroke="black" d="M93,-122.22C93,-122.22 93,-143.73 93,-143.73"/>
<polygon fill="black" stroke="black" points="89.5,-143.73 93,-153.73 96.5,-143.73 89.5,-143.73"/>
</g>
</g>
</svg>
