<?xml version="1.0" encoding="UTF-8" standalone="no"?>
<!DOCTYPE svg PUBLIC "-//W3C//DTD SVG 1.1//EN"
 "http://www.w3.org/Graphics/SVG/1.1/DTD/svg11.dtd">
<!-- Generated by graphviz version 2.47.0 (20210316.0004)
 -->
<!-- Title: dependencies Pages: 1 -->
<svg width="1105pt" height="287pt"
 viewBox="0.00 0.00 1105.00 287.00" xmlns="http://www.w3.org/2000/svg" xmlns:xlink="http://www.w3.org/1999/xlink">
<g id="graph0" class="graph" transform="scale(1 1) rotate(0) translate(4 283)">
<title>dependencies</title>
<polygon fill="white" stroke="transparent" points="-4,4 -4,-283 1101,-283 1101,4 -4,4"/>
<text text-anchor="start" x="527.51" y="-42.4" font-family="Times-12" font-weight="bold" font-size="14.00">Legend</text>
<polygon fill="#ffffb3" stroke="transparent" points="314.5,-10 314.5,-30 334.5,-30 334.5,-10 314.5,-10"/>
<text text-anchor="start" x="338.13" y="-15.4" font-family="Times-12" font-size="14.00"> &#160;Declarations</text>
<polygon fill="#8dd3c7" stroke="transparent" points="427.5,-10 427.5,-30 447.5,-30 447.5,-10 427.5,-10"/>
<text text-anchor="start" x="451.23" y="-15.4" font-family="Times-12" font-size="14.00"> &#160;Module</text>
<polygon fill="#80b1d3" stroke="transparent" points="513.5,-10 513.5,-30 533.5,-30 533.5,-10 513.5,-10"/>
<text text-anchor="start" x="537.28" y="-15.4" font-family="Times-12" font-size="14.00"> &#160;Bootstrap</text>
<polygon fill="#fdb462" stroke="transparent" points="610.5,-10 610.5,-30 630.5,-30 630.5,-10 610.5,-10"/>
<text text-anchor="start" x="634.17" y="-15.4" font-family="Times-12" font-size="14.00"> &#160;Providers</text>
<polygon fill="#fb8072" stroke="transparent" points="706.5,-10 706.5,-30 726.5,-30 726.5,-10 706.5,-10"/>
<text text-anchor="start" x="730.23" y="-15.4" font-family="Times-12" font-size="14.00"> &#160;Exports</text>
<g id="clust1" class="cluster">
<title>cluster_AppModule</title>
<polygon fill="none" stroke="black" stroke-dasharray="1,5" points="168,-70 168,-271 535,-271 535,-70 168,-70"/>
</g>
<g id="clust3" class="cluster">
<title>cluster_AppModule_imports</title>
<polygon fill="none" stroke="black" points="314,-78 314,-206 527,-206 527,-78 314,-78"/>
</g>
<g id="clust6" class="cluster">
<title>cluster_AppModule_providers</title>
<polygon fill="none" stroke="black" points="176,-154 176,-206 306,-206 306,-154 176,-154"/>
</g>
<g id="clust7" class="cluster">
<title>cluster_AuthModule</title>
<polygon fill="none" stroke="black" stroke-dasharray="1,5" points="543,-146 543,-214 807,-214 807,-146 543,-146"/>
</g>
<g id="clust10" class="cluster">
<title>cluster_AuthModule_exports</title>
<polygon fill="none" stroke="black" points="693,-154 693,-206 799,-206 799,-154 693,-154"/>
</g>
<g id="clust12" class="cluster">
<title>cluster_AuthModule_providers</title>
<polygon fill="none" stroke="black" points="551,-154 551,-206 685,-206 685,-154 551,-154"/>
</g>
<g id="clust13" class="cluster">
<title>cluster_PostModule</title>
<polygon fill="none" stroke="black" stroke-dasharray="1,5" points="8,-70 8,-138 160,-138 160,-70 8,-70"/>
</g>
<g id="clust18" class="cluster">
<title>cluster_PostModule_providers</title>
<polygon fill="none" stroke="black" points="16,-78 16,-130 152,-130 152,-78 16,-78"/>
</g>
<g id="clust19" class="cluster">
<title>cluster_UsersModule</title>
<polygon fill="none" stroke="black" stroke-dasharray="1,5" points="815,-146 815,-214 1089,-214 1089,-146 815,-146"/>
</g>
<g id="clust22" class="cluster">
<title>cluster_UsersModule_exports</title>
<polygon fill="none" stroke="black" points="971,-154 971,-206 1081,-206 1081,-154 971,-154"/>
</g>
<g id="clust24" class="cluster">
<title>cluster_UsersModule_providers</title>
<polygon fill="none" stroke="black" points="823,-154 823,-206 963,-206 963,-154 823,-154"/>
</g>
<!-- AuthModule -->
<g id="node1" class="node">
<title>AuthModule</title>
<polygon fill="#8dd3c7" stroke="black" points="409.55,-122 406.55,-126 385.55,-126 382.55,-122 322.45,-122 322.45,-86 409.55,-86 409.55,-122"/>
<text text-anchor="middle" x="366" y="-99.8" font-family="Times,serif" font-size="14.00">AuthModule</text>
</g>
<!-- AppModule -->
<g id="node4" class="node">
<title>AppModule</title>
<polygon fill="#8dd3c7" stroke="black" points="435.66,-263 432.66,-267 411.66,-267 408.66,-263 352.34,-263 352.34,-227 435.66,-227 435.66,-263"/>
<text text-anchor="middle" x="394" y="-240.8" font-family="Times,serif" font-size="14.00">AppModule</text>
</g>
<!-- AuthModule&#45;&gt;AppModule -->
<g id="edge1" class="edge">
<title>AuthModule&#45;&gt;AppModule</title>
<path fill="none" stroke="black" d="M409.92,-110C413.4,-110 415.61,-110 415.61,-110 415.61,-110 415.61,-216.79 415.61,-216.79"/>
<polygon fill="black" stroke="black" points="412.11,-216.79 415.61,-226.79 419.11,-216.79 412.11,-216.79"/>
</g>
<!-- AuthService  -->
<g id="node6" class="node">
<title>AuthService </title>
<polygon fill="#fb8072" stroke="black" points="790.98,-198 701.02,-198 701.02,-162 790.98,-162 790.98,-198"/>
<text text-anchor="middle" x="746" y="-175.8" font-family="Times,serif" font-size="14.00">AuthService </text>
</g>
<!-- AuthModule&#45;&gt;AuthService  -->
<g id="edge5" class="edge">
<title>AuthModule&#45;&gt;AuthService </title>
<path fill="none" stroke="black" stroke-dasharray="5,2" d="M364.03,-122.11C364.03,-131.9 364.03,-142 364.03,-142 364.03,-142 746,-142 746,-142 746,-142 746,-151.89 746,-151.89"/>
<polygon fill="black" stroke="black" points="742.5,-151.89 746,-161.89 749.5,-151.89 742.5,-151.89"/>
</g>
<!-- PostModule -->
<g id="node2" class="node">
<title>PostModule</title>
<polygon fill="#8dd3c7" stroke="black" points="405.67,-198 402.67,-202 381.67,-202 378.67,-198 322.33,-198 322.33,-162 405.67,-162 405.67,-198"/>
<text text-anchor="middle" x="364" y="-175.8" font-family="Times,serif" font-size="14.00">PostModule</text>
</g>
<!-- PostModule&#45;&gt;AppModule -->
<g id="edge2" class="edge">
<title>PostModule&#45;&gt;AppModule</title>
<path fill="none" stroke="black" d="M379,-198.11C379,-198.11 379,-216.99 379,-216.99"/>
<polygon fill="black" stroke="black" points="375.5,-216.99 379,-226.99 382.5,-216.99 375.5,-216.99"/>
</g>
<!-- UsersModule -->
<g id="node3" class="node">
<title>UsersModule</title>
<polygon fill="#8dd3c7" stroke="black" points="518.92,-122 515.92,-126 494.92,-126 491.92,-122 427.08,-122 427.08,-86 518.92,-86 518.92,-122"/>
<text text-anchor="middle" x="473" y="-99.8" font-family="Times,serif" font-size="14.00">UsersModule</text>
</g>
<!-- UsersModule&#45;&gt;PostModule -->
<g id="edge7" class="edge">
<title>UsersModule&#45;&gt;PostModule</title>
<path fill="none" stroke="black" d="M430.14,-122.2C430.14,-146.36 430.14,-186 430.14,-186 430.14,-186 415.88,-186 415.88,-186"/>
<polygon fill="black" stroke="black" points="415.88,-182.5 405.88,-186 415.88,-189.5 415.88,-182.5"/>
</g>
<!-- UsersModule&#45;&gt;AppModule -->
<g id="edge3" class="edge">
<title>UsersModule&#45;&gt;AppModule</title>
<path fill="none" stroke="black" d="M432.98,-122.14C432.98,-122.14 432.98,-216.93 432.98,-216.93"/>
<polygon fill="black" stroke="black" points="429.48,-216.92 432.98,-226.93 436.48,-216.93 429.48,-216.92"/>
</g>
<!-- UsersService  -->
<g id="node9" class="node">
<title>UsersService </title>
<polygon fill="#fb8072" stroke="black" points="1072.85,-198 979.15,-198 979.15,-162 1072.85,-162 1072.85,-198"/>
<text text-anchor="middle" x="1026" y="-175.8" font-family="Times,serif" font-size="14.00">UsersService </text>
</g>
<!-- UsersModule&#45;&gt;UsersService  -->
<g id="edge9" class="edge">
<title>UsersModule&#45;&gt;UsersService </title>
<path fill="none" stroke="black" stroke-dasharray="5,2" d="M518.72,-98C651.22,-98 1026,-98 1026,-98 1026,-98 1026,-151.8 1026,-151.8"/>
<polygon fill="black" stroke="black" points="1022.5,-151.8 1026,-161.8 1029.5,-151.8 1022.5,-151.8"/>
</g>
<!-- AppService -->
<g id="node5" class="node">
<title>AppService</title>
<ellipse fill="#fdb462" stroke="black" cx="241" cy="-180" rx="56.74" ry="18"/>
<text text-anchor="middle" x="241" y="-175.8" font-family="Times,serif" font-size="14.00">AppService</text>
</g>
<!-- AppService&#45;&gt;AppModule -->
<g id="edge4" class="edge">
<title>AppService&#45;&gt;AppModule</title>
<path fill="none" stroke="black" d="M241,-198.11C241,-217.34 241,-245 241,-245 241,-245 342.19,-245 342.19,-245"/>
<polygon fill="black" stroke="black" points="342.19,-248.5 352.19,-245 342.19,-241.5 342.19,-248.5"/>
</g>
<!-- AuthService -->
<g id="node7" class="node">
<title>AuthService</title>
<ellipse fill="#fdb462" stroke="black" cx="618" cy="-180" rx="59.11" ry="18"/>
<text text-anchor="middle" x="618" y="-175.8" font-family="Times,serif" font-size="14.00">AuthService</text>
</g>
<!-- AuthService&#45;&gt;AuthModule -->
<g id="edge6" class="edge">
<title>AuthService&#45;&gt;AuthModule</title>
<path fill="none" stroke="black" d="M561.94,-174C503.85,-174 421.45,-174 421.45,-174 421.45,-174 421.45,-98 421.45,-98 421.45,-98 419.69,-98 419.69,-98"/>
<polygon fill="black" stroke="black" points="419.69,-94.5 409.69,-98 419.69,-101.5 419.69,-94.5"/>
</g>
<!-- PostsService -->
<g id="node8" class="node">
<title>PostsService</title>
<ellipse fill="#fdb462" stroke="black" cx="84" cy="-104" rx="60.27" ry="18"/>
<text text-anchor="middle" x="84" y="-99.8" font-family="Times,serif" font-size="14.00">PostsService</text>
</g>
<!-- PostsService&#45;&gt;PostModule -->
<g id="edge8" class="edge">
<title>PostsService&#45;&gt;PostModule</title>
<path fill="none" stroke="black" d="M144.54,-104C211.45,-104 309.89,-104 309.89,-104 309.89,-104 309.89,-180 309.89,-180 309.89,-180 312.17,-180 312.17,-180"/>
<polygon fill="black" stroke="black" points="312.17,-183.5 322.17,-180 312.17,-176.5 312.17,-183.5"/>
</g>
<!-- UsersService -->
<g id="node10" class="node">
<title>UsersService</title>
<ellipse fill="#fdb462" stroke="black" cx="893" cy="-180" rx="61.95" ry="18"/>
<text text-anchor="middle" x="893" y="-175.8" font-family="Times,serif" font-size="14.00">UsersService</text>
</g>
<!-- UsersService&#45;&gt;UsersModule -->
<g id="edge10" class="edge">
<title>UsersService&#45;&gt;UsersModule</title>
<path fill="none" stroke="black" d="M893,-161.97C893,-141.23 893,-110 893,-110 893,-110 528.75,-110 528.75,-110"/>
<polygon fill="black" stroke="black" points="528.75,-106.5 518.75,-110 528.75,-113.5 528.75,-106.5"/>
</g>
</g>
</svg>
